<svg id="home-about" xmlns="http://www.w3.org/2000/svg" version="1" x="0" y="0" viewBox="0 0 476 476" xml:space="preserve"><path d="M14 51l0 0c0 1 1 1 1 1l0 0 122 117v307h328V19H136v53L62 1l0 0C59 0 45-5 26 15S13 49 14 51L14 51zM353 337h70v99h-70V337zM353 152h19 10 27 11 2v177h-70V152zM353 59h11v84h-11V59zM391 59h11v84h-11V59zM423 144h-2 -11V59h13V144zM383 144h-10V59h10V144zM345 144h-10V59h10V144zM316 59h11v84h-11V59zM177 59h131v84h-43v8h43 27 10v177 8 99h-54v-19h-16v19h-98V284h13v-16h-13v-60l7 7c2-9 8-20 17-30 10-11 22-20 30-22l-54-52V59zM204 187c-11 13-16 25-16 31 0 2 4 4 5 4 0 0 0 0 0 0l9 1 7 1 32 4c0 0 0 0 0 0 0-2 1-5 3-8 1-1 4-4 7-4l-9-31 -2-7 -2-8c0-2-2-4-3-4C229 166 216 173 204 187zM231 176l1 5 2 7 7 24c-2 1-3 2-3 3 -1 1-2 3-3 4l-25-3 -7-1 -6-1c2-5 6-13 13-22C219 183 226 178 231 176zM246 228c0 0 0 0 0 0l7 6c0 0 2 1 4 1 1 0 2 0 3-1 2-2 0-6-1-6l-7-6c0 0 0 0-1 0 0 0 0 0 0 0 -1 0-2 1-3 2C246 225 246 227 246 228z"/><polygon points="275 294 291 294 291 268 264 268 264 284 275 284 " /><rect x="215" y="268" width="23" height="16"/><rect x="275" y="319" width="16" height="23"/><rect x="275" y="368" width="16" height="23"/></svg>
