<svg xmlns="http://www.w3.org/2000/svg" width="282.8" height="210.8"><path fill="black" d="m122.2 127.2c-5.5-2.4-13.1-8.5-17.6-12.5l-95.7-88.1c-4.4-4.1-8.2-12.6-5.3-17.8 2.4-4.3 6.9-8.2 15.4-8.2h245c0 0 10.7 0.2 15.7 8.8 3 5.2-1.1 13.7-5.5 17.7l-105 94.9c-0.1 0.1-20.3 16.6-47 5.2zm-102.6 80.9c0 0-19.5-1.7-19.5-18.9v-139.8c0-6 3.5-7.5 7.7-3.2l41.4 40.9c4.3 4.2 5.8 12.1 3.5 17.7l-29.8 70.1c-2.3 5.5-1.3 6.2 2.4 1.4l41.6-53.2c3.7-4.7 10.5-5.5 15.2-1.8l18.4 14.8c4.7 3.8 12.9 8.9 18.6 10.8 13.5 4.5 37.5 9.7 52.7-3.4l26.8-22.4c4.6-3.9 11.3-3.1 14.9 1.7l44 58.1c3.6 4.8 4.7 4.2 2.4-1.4l-30.4-74c-2.3-5.6-0.7-13.5 3.6-17.7l41.9-41.5c4.3-4.2 7.7-2.8 7.7 3.2v141.1c0 0-1.2 17.6-20.6 17.6h-242.5v-0.1l0 0z"/></svg>
