<svg xmlns="http://www.w3.org/2000/svg" version="1.1" x="0" y="0" width="270.6" height="270.6" viewBox="0 0 270.6 270.6" xml:space="preserve"><path d="M52.7 174.7c0 4.2 2.3 8 6 10 1.1 0.6 2.4 0.5 3.5-0.1 1.1-0.6 1.7-1.8 1.7-3v-3.7h0.3v3.7c0 1.2 0.6 2.4 1.7 3 0.6 0.3 1.2 0.5 1.8 0.5 0.6 0 1.1-0.1 1.6-0.4 3.7-2 6-5.8 6-10 0-2.9-1.1-5.7-3.1-7.8v-2.4c1.2 0.6 2.6 0.9 4 1l22.3 5c0.4 0.1 0.8 0.1 1.2 0 4.1 0.5 8.4-1.7 10.4-5.4l0.9-1.6 8.5 19.6 -13 11.1c-0.6 0.4-1.1 0.9-1.6 1.3 0 0-0.1 0.1-0.1 0.1 -2.3 2.4-3.6 5.6-3.6 8.9 0 1.4 2.4 11.3 7.2 29.5l-9.2 3.4c-0.8 0.3-1.4 0.8-1.8 1.5 -1.4 1.2-2.3 3-2.3 5 0 4.4 5.8 6.4 7.6 6.4 0.1 0 0.1 0 0.2 0l17.4 0.5c0.5 0.1 1.1 0.1 1.6 0.1 0.5 0 1.1 0 1.6-0.1h0.7c0 0 0 0 0 0 0.8 0 1.6-0.3 2.2-0.8 4.5-1.8 7.6-6.2 7.6-11.2 0-0.1 0-0.3 0-0.4 0.1-0.2 0.1-0.5 0.1-0.7 0-0.6-0.1-1.1-0.4-1.6 -0.2-0.8-0.4-1.5-0.8-2.3l-7.7-22.7c0 0 0 0 0 0l12.4-11.2 1.7 8.7c0 0.2 0.1 0.4 0.2 0.5 1.3 3.5 4 6.2 7.3 7.4l27.7 12.2v12.5c0 0.7 0.2 1.3 0.6 1.9 0.9 2.6 3.3 4.4 6.2 4.4 2.9 0 5.3-2.6 6.5-4.2 0.2-0.3 0.4-0.6 0.5-0.9l6.1-16.5c0.6-1 1-2.1 1.2-3.3l0.1-0.1c0.2-0.5 0.2-1 0.2-1.5 0-0.3 0-0.6 0-0.8 0-3.5-1.5-6.6-3.9-8.8 0.5-0.2 1.1-0.4 1.5-0.8l29.2-29.1c1.4-1.4 1.4-3.6 0-5l-13.8-13.8c0 0 0 0 0 0 0 0 0 0 0 0l-9.7-9.7c-1.3-1.3-3.6-1.3-5 0l-10.1 10.1c-0.3-2.7-1.7-5.2-3.8-6.9l-21.2-17.6c-1.5-1.6-3.5-2.6-5.7-3 -0.1 0-0.1 0-0.2-0.1l-23.1-5.9c-1.9-0.9-3.9-1.4-6-1.5 -0.2 0-0.4 0-0.7 0 -1.1-0.1-2.3 0-3.4 0.2 3.8-3.3 6.2-8.1 6.2-13.5 0-9.9-8-17.9-17.9-17.9 -8.7 0-15.9 6.2-17.6 14.4h-0.8c-1.9 0-3.5 1.6-3.5 3.5 0 1.9 1.6 3.5 3.5 3.5h0.8c1.6 8.2 8.9 14.4 17.6 14.4 0.9 0 1.8-0.1 2.7-0.3 -1.4 1.2-2.7 2.6-3.7 4.3l-9.9 13 -17.5-4.4c-0.4-0.1-1.7-0.4-1.7-0.4 -0.4-0.1-0.7-0.1-1.1-0.1 -1.8-0.1-3.4 0.3-4.9 1v-5.6c2-2.1 3.1-4.8 3.1-7.8 0-4.2-2.3-8-6-10 -1.1-0.6-2.4-0.5-3.4 0.1 -1.1 0.6-1.7 1.8-1.7 3v3.1h-0.3v-3.1c0-1.2-0.6-2.4-1.7-3 -1.1-0.6-2.4-0.7-3.5-0.1 -3.7 2-6 5.8-6 10 0 2.9 1.1 5.7 3.1 7.8v27C53.8 169 52.7 171.8 52.7 174.7zM215.2 178.8L191 203l-8.9-8.9 9.7-9.7c0.6 0.4 1.3 0.7 2 0.7 0.9 0 1.8-0.3 2.5-1 1.2-1.2 1.3-3.1 0.3-4.5l9.7-9.7L215.2 178.8zM165 186.9l21.4 21.4 -23.7-10.6 -7.8-24.6c0-0.1-0.1-0.3-0.2-0.4l-8.1-17.4 0.5 0.1 19.7 16.8c1.6 1.4 3.5 2.3 5.6 2.5l-7.4 7.4C163.6 183.3 163.6 185.5 165 186.9zM196.6 160.2l4.8 4.8 -12.1 12.1c0 0 0 0 0 0 0 0 0 0 0 0l-12.1 12.1 -4.8-4.8L196.6 160.2zM108.2 103.5c4.8 0 8.8 3.1 10.3 7.4H97.9C99.3 106.7 103.4 103.5 108.2 103.5zM108.2 125.4c-4.8 0-8.8-3.1-10.3-7.4h20.6C117 122.3 113 125.4 108.2 125.4zM77 151.5c0 0 0.1 0 0.1 0 0.3 0.1 0.6 0.1 0.8 0.2l20 5c1.4 0.3 2.8-0.2 3.6-1.3l11.2-14.7c0.1-0.2 0.3-0.4 0.4-0.6 2-3.4 5.6-5.4 9.4-5.4l0.6 0c0 0 0.1 0 0.1 0 1.4 0.1 2.8 0.4 4 1 0.2 0.1 0.4 0.2 0.6 0.2l23.1 5.9c0.3 0.1 0.6 0.2 0.9 0.2 0.8 0.1 1.6 0.5 2.1 1.1 0.1 0.1 0.2 0.2 0.3 0.3l21.5 17.8c0.9 0.7 1.4 1.7 1.4 2.8 0 1.9-1.6 3.5-3.5 3.5 -1.1 0-1.9-0.5-2.4-0.9l-20.5-17.4c-0.4-0.4-1-0.6-1.6-0.8l-8.2-1.7c-1.3-0.3-2.6 0.2-3.5 1.3 -0.8 1-1 2.5-0.4 3.7l11 23.6 8.2 25.9c0.3 0.9 1 1.7 1.9 2.1l25.7 11.5c0.2 0.1 0.5 0.2 0.8 0.2 2.4 0.5 4.1 2.5 4.1 5 0 0.2 0 0.5-0.1 0.7 0 0.1 0 0.1 0 0.2 0 0 0 0 0 0.1 -0.1 0.6-0.3 1.1-0.6 1.6 -0.1 0.2-0.2 0.4-0.3 0.6l-6 16.2c-0.1 0.2-0.3 0.3-0.4 0.5 0 0 0 0 0 0v-13.5c0-1.4-0.8-2.6-2.1-3.2l-30-13.2c-1.5-0.6-2.7-1.7-3.3-3.2l-2.8-13.9c0-0.9-0.4-1.7-1-2.4 -0.8-0.9-2.2-1.4-3.4-1.2 -1.3 0.2-2.4 1.1-2.8 2.3l-16.1 14.6c-0.3 0.3-0.6 0.6-0.8 1 -0.2 0.4-0.4 0.7-0.7 1.1 -0.8 0.9-1 2.2-0.6 3.4l8.3 24.6c0 0.1 0.1 0.3 0.2 0.4 0.2 0.4 0.3 0.8 0.4 1.2 0 0 0 0.1 0 0.1 0 0.1 0 0.1 0 0.2 0 0.2 0.1 0.5 0.1 0.7 0 2.3-1.5 4.3-3.8 4.9 -0.1 0-0.2 0-0.2 0.1 -0.1 0-0.2 0-0.3 0 -0.5 0.1-1.1 0.1-1.6 0 -0.1 0-0.3 0-0.4 0l-17.1-0.5 10.3-3.8c1.7-0.6 2.6-2.4 2.2-4.2 -3.6-13.7-7.5-29.2-7.8-30.8 0-1.5 0.6-3 1.7-4.1 0 0 0.1-0.1 0.1-0.1 0.2-0.2 0.4-0.4 0.8-0.7l15.2-12.9c1.2-1 1.6-2.7 0.9-4.1l-12.4-28.4c-0.5-1.2-1.7-2-3-2.1 -1.3-0.1-2.6 0.6-3.2 1.8l-4.4 7.9c-0.7 1.3-2.4 2.1-3.8 1.8 -0.3-0.1-0.6-0.1-0.9 0l-21.8-4.9c-0.3-0.1-0.5-0.1-0.8-0.1 -1.9 0-3.5-1.6-3.5-3.5C73.1 152.9 75 151.3 77 151.5zM66.8 135.4c-0.1 0.1-0.1 0.1-0.2 0.2 -0.9 0.7-1.4 1.7-1.4 2.8v30.1c0 0.9 0.3 1.8 0.9 2.4h-4.2c0.6-0.6 0.9-1.5 0.9-2.4V138.4c0-1.1-0.5-2.1-1.4-2.8 -0.1-0.1-0.1-0.1-0.2-0.2H66.8zM5.3 131.5c1.2 0 2.3-0.4 3.3-1.2l23.6-19.3V231.3c0 2.9 2.4 5.3 5.3 5.3 2.9 0 5.3-2.4 5.3-5.3V102.4l86.7-70.9 96 71.6v128.1c0 2.9 2.4 5.3 5.3 5.3s5.3-2.4 5.3-5.3V111l26.2 19.5c0.9 0.7 2 1 3.1 1 1.6 0 3.2-0.7 4.2-2.1 1.7-2.3 1.3-5.6-1.1-7.4l-33.3-24.8c-0.7-1.1-1.7-1.9-3-2.2l-99.7-74.3c-0.1-0.1-0.2-0.1-0.3-0.2 -0.2-0.1-0.3-0.2-0.5-0.3 -0.1-0.1-0.3-0.1-0.5-0.2 -0.2-0.1-0.3-0.1-0.5-0.2 -0.2 0-0.3-0.1-0.5-0.1 -0.2 0-0.3-0.1-0.5-0.1 -0.2 0-0.3 0-0.5 0 -0.2 0-0.4 0-0.5 0 -0.1 0-0.3 0.1-0.5 0.1 -0.2 0-0.4 0.1-0.5 0.1 -0.2 0-0.3 0.1-0.4 0.2 -0.2 0.1-0.3 0.1-0.5 0.2 -0.2 0.1-0.3 0.2-0.5 0.3 -0.1 0.1-0.2 0.1-0.3 0.2L87.2 52.5V41.1c0-2.9-2.4-5.3-5.3-5.3H53.9c-2.9 0-5.3 2.4-5.3 5.3v42.9L1.9 122.2c-2.2 1.8-2.6 5.1-0.7 7.4C2.2 130.9 3.7 131.5 5.3 131.5zM59.2 46.4h17.5v14.8L59.2 75.4V46.4z"/></svg>
