<svg xmlns="http://www.w3.org/2000/svg" width="640" height="480"><title>Layer 1</title><title>Layer 1</title><path d="m89 6c-1.6 0-14.2 6.7-28 28.1 -16.2 25.2-32 61.4-39.5 81.3 -5.6 14.9-6.6 31.3-6.6 34.4l0 6.3m24.1-85.1l0 0 0 0c4 0 13.2 6.7 23 15 19.5 16.5 31.5 27.7 40 41 7.5 11.7 9.5 21 10 33 0.3 7 0 15 0 26 0 12 0 22-3 31 -4 12-6.3 18.3-12 30 -3.6 7.2-9.4 11.8-13 18 -3.4 5.8-5.5 11.9-6 16 -0.6 5 0 11 0 17 0 7 1.1 10.5 6 18 4.3 6.5 9.9 11.1 15 15 6.9 5.2 14 10 22 13 8 3 15.9 4.6 25 6 11.9 1.8 21 1 27 1l5-1 3-1 2-2m-71-160c0-2-1.1-11.2 1-20 2.7-11.4 10.9-30.6 24-53 10.2-17.5 23.5-34.6 35-45 10.5-9.5 17-14 23-18 6-4 12.3-4.9 18-7 5.5-2 11-5 18-7 7-2 12-3.9 18-6 8.1-2.9 14.9-5.5 22-6 7-0.5 17-0.4 23 0 8 0.5 14.3 3.3 17 5 3.6 2.2 5.3 3.7 7 6 1.3 1.8 2 4 2 4 0 1 0 2 0 3 0 2 0 3 0 6 0 2 0.7 7.2-1 11 -1.5 3.3-4.6 6.2-6 9 -1.6 3.2-2.6 5.2-4 8 -1.6 3.2-2.7 5.2-4 7 -1.7 2.3-4.6 2.3-7 5 -1.5 1.7-4.3 3.7-7 7 -2.3 2.8-5.6 4-9 7 -2.7 2.4-4.7 5.2-6 7 -1.7 2.3-4.4 3.8-6 7 -1.4 2.8-3.6 6.2-5 9 -1.6 3.2-3.1 6-4 9 -1.2 4-1.8 7-3 11 -0.9 3-1.5 4.9-2 8 -0.5 3 0 5 0 6 0 3 0 4 0 6 0 0 0 2 0 3 0 1-0.7 2.3 0 3 0.7 0.7 1.9 1.1 3 3 1.8 3.1 3.3 4.5 5 6 2.7 2.4 4.8 5.2 7 7 2.8 2.3 5.2 4.7 8 7 1.1 0.9 3.3 1.3 6 3 1.2 0.7 3 2 5 3 2 1 4.2 2.2 5 4 0.5 1.3 3.5 2.6 5 5 1.7 2.7 2 5 3 7 1 2 1.5 5.9 2 10 0.4 3 1 6 1 10 0 5 0.2 9.1-2 13 -1.8 3.1-4.6 5.6-7 10 -2.6 4.7-5.2 8.9-7 12 -3.4 5.8-6.1 9.9-10 15 -3.1 4-6 8-10 13 -4.9 6-9.6 10.9-16 13 -5.8 1.9-11.6 4-16 5 -4.9 1.1-10 0-14 0 -3 0-8 0.5-13 0 -5.1-0.5-10-3-13-3 -3 0-5 0-7 0 -3 0-6 0-11 0 -8 0-16.7-2.6-26-6 -6.8-2.5-14.3-6.2-20-9 -3.2-1.6-6-4-8-6 -2-2-4.5-2.6-6-5 -1.7-2.7-3.5-4.6-5-7 -1.7-2.7-1.3-5.1-2-8 -0.5-2.2-1.3-4.1-2-7 -0.5-2.2-2-5-2-7 0-2 0-3 0-4 0-1 0.4-2.1 0-3 -0.5-1.3-1.5-1.8-2-4 -0.2-1-1-2-1-3 0-1-1.5-0.7-2-2 -0.4-0.9-1-3-2-4l0-1 0-1m-35-145c0 1-2.9 14-8 28 -5.9 16-11 29-14 36 -3 7-7.4 13.8-10 19 -2.4 4.8-4.9 12-6 19 -0.9 6-1.9 12.1-3 17 -1 4.4-2 8-2 11 0 3 0.3 5.7 4 10 3.3 3.8 7.4 9.8 12 17 4.3 6.8 10 12.8 15 18 3.4 3.6 5 5 7 7 1 1 3.4 1.4 5 3 1.6 1.6 2.5 2.7 3 4 0.4 0.9 1 2 1 3 0 1 0 2 0 3 0 1 0 2 0 3 0 1 0 2 0 3 0 1 0 2 1 2 1 0 2.3-0.7 3 0 0.7 0.7 1 1 2 1l1 0 0 1 0 1m-55-74c3 0 14.6-8.2 34-14 25.6-7.6 50.9-11 75-12 14-0.6 25 0 30 0 3 0 6 0 7 0 1 0 2 0 4 0 1 0 1.9 0.5 5 1 3 0.5 5 0 8 0 4 0 6.9-0.2 10-2 3.9-2.2 7.9-4.2 12-6 4.9-2.2 8.9-2.5 15-3 5-0.4 10-1 14-1 3 0 4 0 4 0 1 0 2-2 4-4 1-1 1.7-3.2 3-5 1.7-2.3 3.1-3.8 5-5 0.9-0.5 1.5-0.7 2-2 0.4-0.9 0-2 1-2l0-1m-170-164c0 1 12.9 22.1 29 43 16.9 22.1 48 58 68 77 22 21 30.6 29.5 37 34 4.8 3.4 6 4 7 5 1 1 0.3 2.3 1 3 0.7 0.7 2 0 5 0 4 0 7 1 9 2 2 1 3 1 4 1 1 0 1 1 2 1 1 0 2 0 2 0 2 1 4 2 6 2l1 0 1 1m-245-20c4 0 7.6 2 21 7 20.5 7.6 42.8 12.8 63 18 13.9 3.6 26.9 6.3 35 8 6 1.2 12.3 1.9 19 4 6.4 2 13.9 7.2 22 12 10.8 6.3 17 10 22 15 5 5 10 9 13 13 3 4 6 7 8 10 2 3 4.5 5.9 5 9 0.3 2 0 5 0 8 0 4-0.7 7.4-6 12 -3.8 3.3-12.6 9.2-23 12 -12.7 3.5-21 1.4-31 2 -8 0.5-13 0.5-17 1 -4.1 0.5-6.9 1.5-10 2 -3 0.5-8 2-12 2 -3 0-7 0-10 0 -2 0-5 0-6 0 -2 0-3 0-4 0 -2 0-3.2-0.1-6 1 -1.3 0.5-3.1 0.6-4 1 -1.3 0.5-3 1-5 1 -1 0-2 0-3 0 -1 0-2.3-0.7-3 0 -0.7 0.7-1 1-1 2l-1 0 -1 0m9-290c2 0 10 0 22 0 7 0 15-0.7 23 0 6.1 0.5 10.9 1.5 15 2 3 0.4 7 0 8 0 3 0 6 0 9 0 5 0 9 0 12 0 4 0 8 0 11 0 3 0 6 0 7 0 3 0 7.1-0.5 9 0 2.2 0.5 5 2 7 2 3 0 5.8 1.4 10 3 3.9 1.4 6.5 3 10 4 3.8 1.2 5.6 3.5 8 5 2.7 1.7 4.9 2.1 7 3 2.9 1.2 4.8 2.5 7 3 1.9 0.5 5 0 7 0 3 0 6 0 9 0 2 0 4 0 5 0l1 0 1 0m-92 321c1 0 5.4-3.4 9-6 2.3-1.7 3-3 4-4 1-1 1.3-1.3 2-2 0.7-0.7 0.7-1.5 2-2 0.9-0.4 1.3-0.3 2-1 0.7-0.7 1.6-1.1 2-2 0.5-1.3 2.5-1.7 3-3 0.4-0.9 1.3-0.3 2-1 0.7-0.7 1-1 2-2 1-1 2.1-0.6 3-1 1.3-0.5 1.3-1.3 2-2 1.4-1.4 2.3-0.3 3-1 0.7-0.7 2 0 3 0l1 0 1 0m81-100c3 0 9.5-2.1 18-5 9.6-3.3 18-4.9 24-7 8.1-2.9 13.9-4.4 22-6 6.9-1.4 13-2 19-2 6 0 11 0 17 0 4 0 8.2-0.4 12 2 4.3 2.6 9.7 7.3 14 11 3.8 3.3 9.9 8.3 12 12 2 3.6 3.4 7.8 5 11 1.4 2.8 3 7 4 11 1 4 2 11 2 17 0 8 0.5 13 0 20 -0.5 7.1-4.3 15.3-7 20 -3.2 5.5-8.2 11.8-14 17 -5.4 4.8-10.8 8.4-19 13 -7.8 4.4-16.5 8.1-26 12 -6.7 2.8-17 4-25 6 -4 1-9.1 1.5-15 3 -6.1 1.5-10 3-14 3 -5 0-10 0-16 0 -4 0-9.2-0.5-14-3 -3.2-1.7-8-4-13-6 -5-2-7.5-5.5-10-8 -2.5-2.5-4.6-5.5-7-7 -2.7-1.7-4.2-3.7-6-5 -1.1-0.8-2-2-3-3 -1-1-1.6-2.1-2-3 -0.5-1.3-2-3-3-4 -1-1-1.3-1.3-2-2 -0.7-0.7 0-2-1-2l0-1 0-1m64-276c1 0 11 0 27 0 15 0 33.4-1.8 53 4 15.5 4.6 28.7 11.4 39 19 8.7 6.4 16.6 13.7 21 24 4.6 10.8 7.1 20.1 9 30 1.4 7.2 2 13 2 19 0 5-0.8 11.1-3 16 -1.8 4.1-5 9.4-8 15 -3.1 5.6-6.7 10.2-10 15 -2.8 4.1-6.7 8.2-10 12 -2.8 3.2-4.9 4.2-8 6 -1.9 1.1-3.2 1.7-5 3 -2.3 1.7-3.9 3.2-5 4 -1.8 1.3-4 1-5 1l0 0 0 1 -1 0m-107-126c0 2 0.6 8 0 15 -0.5 6.1-1 12-1 18 0 4-0.3 7.2 1 9 3.3 4.6 8.9 6.1 14 10 6.9 5.2 10.6 8.5 16 12 3.8 2.4 6.9 3.5 10 4 1 0.2 1.8 0.5 4 1 1 0.2 4 0 6 0 2 0 4 0 6 0 2 0 4 0 6 0 3 0 6 0 9 0 3 0 5.5 1 9 2 1.9 0.6 5.3 0.3 8 2 2.4 1.5 3.7 4.2 6 7 1.8 2.2 4.2 4.9 6 8 1.1 1.9 2.5 3.8 3 6 0.5 1.9 0 3 0 5 0 3 0 5 0 7 0 1 0.4 2.1 0 3 -0.5 1.3-2.3 0.3-3 1 -1.4 1.4-1.3 2.3-2 3 -0.7 0.7 0.7 1.3 0 2 -0.7 0.7-1 1-2 1l0 1 -1 0m-130-4c0-1-0.4-6.2 2-11 2.6-5.2 5.7-10.2 9-14 2.8-3.2 5.7-5.3 9-8 2.8-2.3 7.1-4.8 10-6 2.1-0.9 3.8-2.5 6-3 1.9-0.5 2.8-1.3 4-2 2.7-1.7 4.1-1.6 5-2 1.3-0.5 1.7-2.5 3-3 0.9-0.4 3-1 4-1 2 0 3 0 3 0l1-1 1 0m46-106c0 3 1.5 10.8 6 22 5.6 13.8 12.3 24.9 18 39 3.2 7.9 6 15.8 7 23 1 6.9 0 14 0 19 0 4 0 6 0 9 0 1-0.6 2.1-1 3 -0.5 1.3-3 2-4 3 -1 1-3 2-4 2 -1 0-2 0-3 0l-1 0 0 1m-81-90c1 0 9.4-0.8 19 4 18.9 9.5 34.4 21.9 46 29 7.6 4.6 10 6 13 9 1 1 1 2 2 2 1 0 3 0 4 0 2 0 3 0 4 0 1 0 2 0 2 1l1 0 1 0 0 1m-319-105c2 0 10.2 1.3 20 5 17.5 6.7 32.4 16.2 42 22 7.4 4.4 12.4 6.4 16 9 1.1 0.8 2.3 1.3 3 2 0.7 0.7 1.3 0.3 2 1 0.7 0.7 1 1 1 1 1 0 1.3 0.3 2 1 0.7 0.7 2 1 3 1 1 0 1 1 2 1 1 0 1.7 1.5 3 2 0.9 0.4 1.7 1.5 3 2 0.9 0.4 1 1 2 1 1 0 2 0 2 0 1 0 3.1-0.4 4 0 1.3 0.5 1.7 1.5 3 2 1.8 0.8 4 2 6 3 2 1 3.4 2.4 5 4 1.6 1.6 4.2 2.9 5 4 1.3 1.8 1.3 3.3 2 4 0.7 0.7 1 2 1 3 0 1 0 2 0 3 0 1 0 3 0 4 0 2 0 5 0 7 0 2 0 4 0 6 0 2-1 4-1 6 0 1-1 1-1 3 0 1 0 2 0 3 0 1 0 2 0 3 0 1 0 2 0 3 0 1-0.7 2.3 0 3 0.7 0.7 1.3 0.3 2 1 0.7 0.7 1.3 0.3 2 1 0.7 0.7 0.1 2.8 2 4 0.9 0.5 1.7 1.5 3 2 0.9 0.4 2.5-0.3 3 1 0.4 0.9 1 1 2 1 1 0 2 1 3 1 1 0 2 0 3 0 1 0 2 0 3 0 2 0 4 0 5 0 1 0 2 0 3 0 1 0 3 0 5 0 1 0 2 0 4 0 1 0 2 0 4 0 2 0 3 0 3 0 1 0 2 0 3 0 2 0 3 0 3-1 0-1 0.6-1.1 1-2 0.5-1.3 1-2 1-2 0-1 1-1 2-1 1 0 2 0 4 0 0 0 1 0 2 0 1 0 1.7 1.2 3 3 0.8 1.1 2 2 2 2 1 1 1.2 2.2 2 4 0.5 1.3 2.5 0.7 3 2 0.4 0.9 0.2 2.2 1 4 0.5 1.3 2.5 1.7 3 3 0.4 0.9 0.6 1.1 1 2 0.5 1.3 0.2 2.2 1 4 0.5 1.3 1.2 2.2 2 4 0.5 1.3 1.5 1.7 2 3 0.4 0.9 0.3 3.3 1 4 0.7 0.7 0.3 1.3 1 2 0.7 0.7 1 1 2 1 1 0 2 0 3 0 2 0 4 0 7 0 2 0 4.8 0.5 7 1 2.9 0.7 4.5 2 8 3 2.9 0.9 7 0.8 11 2 3 0.9 5.7 2.3 8 4 1.8 1.3 4.2 1.7 6 3 1.1 0.8 2.7 2.5 4 3 0.9 0.4 1.6 0.1 2 1 0.5 1.3 1.7 2.2 3 4 0.8 1.1 1.5 1.8 2 4 0.2 1 0 3 0 5 0 1 0 3 0 4 0 1 0 3 0 4 0 1 0 1 0 2 0 1 0.6 2.4-2 6 -0.8 1.1-2 3-3 4 -1 1-2 2-3 3 -1 1-2.2 1.7-4 3 -2.3 1.7-2.9 2.2-4 3 -1.8 1.3-3 3-4 4 -1 1-1.8 2-2 3 -1 4.4-3.5 4.8-4 7 -0.5 1.9 0 7 0 10 0 4 0 8 0 11 0 4 0 8 0 10 0 3 0 5 0 8 0 3 0 8 0 11 0 3 0.8 7 2 11 0.9 3 1.6 6.2 4 10 2.6 4.3 4.5 6.6 7 10 1.3 1.8 2.9 3.1 4 4 2.8 2.3 5 3 9 5 4 2 8.7 5.4 13 8 3.8 2.4 5.9 3.2 9 5 1.9 1.1 6.2 1.7 8 3 2.3 1.7 4 3 5 4l1 0 1 0 1 0m-180-207q43.9 30.2 87.7 0m-78.2-59.5c0-4.7 3.8-8.4 8.4-8.4 4.7 0 8.4 3.8 8.4 8.4 0 4.7-3.8 8.4-8.4 8.4 -4.7 0-8.4-3.8-8.4-8.4m51.9 0c0-4.7 3.8-8.4 8.4-8.4 4.7 0 8.4 3.8 8.4 8.4 0 4.7-3.8 8.4-8.4 8.4 -4.7 0-8.4-3.8-8.4-8.4m-98.5 24.2l0 0c0-44.7 36.3-81 81-81 44.7 0 81 36.3 81 81 0 44.7-36.3 81-81 81 -44.7 0-81-36.3-81-81zm0 0l0 0c0-44.7 36.3-81 81-81 44.7 0 81 36.3 81 81 0 44.7-36.3 81-81 81 -44.7 0-81-36.3-81-81zm175.2 198q34.1 25.7 68.2 0m-60.8-50.7c0-4 2.9-7.2 6.6-7.2 3.6 0 6.6 3.2 6.6 7.2 0 4-2.9 7.2-6.6 7.2 -3.6 0-6.6-3.2-6.6-7.2m40.4 0c0-4 2.9-7.2 6.6-7.2 3.6 0 6.6 3.2 6.6 7.2 0 4-2.9 7.2-6.6 7.2 -3.6 0-6.6-3.2-6.6-7.2m-76.6 20.6l0 0c0-38.1 28.2-69 63-69 34.8 0 63 30.9 63 69 0 38.1-28.2 69-63 69 -34.8 0-63-30.9-63-69zm0 0l0 0c0-38.1 28.2-69 63-69 34.8 0 63 30.9 63 69 0 38.1-28.2 69-63 69 -34.8 0-63-30.9-63-69zm-150.3 11.8q39 26.8 78 0m-69.5-52.9c0-4.1 3.4-7.5 7.5-7.5 4.1 0 7.5 3.4 7.5 7.5 0 4.1-3.4 7.5-7.5 7.5 -4.1 0-7.5-3.4-7.5-7.5m46.1 0c0-4.1 3.4-7.5 7.5-7.5 4.1 0 7.5 3.4 7.5 7.5 0 4.1-3.4 7.5-7.5 7.5 -4.1 0-7.5-3.4-7.5-7.5m-87.6 21.5l0 0c0-39.8 32.2-72 72-72 39.8 0 120-2.8 120 37 0 39.8-80.2 107-120 107 -39.8 0-72-32.2-72-72zm0 0l0 0c0-39.8 32.2-72 72-72 39.8 0 69 21.2 69 61 0 39.8-29.2 83-69 83 -39.8 0-72-32.2-72-72zm-99.8-100.6q49.1 33.7 98 0m-87.4-66.5c0-5.2 4.2-9.4 9.4-9.4 5.2 0 9.4 4.2 9.4 9.4 0 5.2-4.2 9.4-9.4 9.4 -5.2 0-9.4-4.2-9.4-9.4m58 0c0-5.2 4.2-9.4 9.4-9.4 5.2 0 9.4 4.2 9.4 9.4 0 5.2-4.2 9.4-9.4 9.4 -5.2 0-9.4-4.2-9.4-9.4m-110.1 27.1l0 0c0-50 40.5-90.5 90.5-90.5 50 0 90.5 40.5 90.5 90.5 0 50-40.5 90.5-90.5 90.5 -50 0-90.5-40.5-90.5-90.5zm0 0l0 0c0-50 40.5-90.5 90.5-90.5 50 0 90.5 40.5 90.5 90.5 0 50-40.5 90.5-90.5 90.5 -50 0-90.5-40.5-90.5-90.5z" stroke-width="5" stroke="#000000" fill="none"/></svg>
