<svg xmlns="http://www.w3.org/2000/svg" version="1.1" x="0" y="0" width="34.5" height="34.5" viewBox="0 0 34.5 34.5" preserveAspectRatio="xMidYMid meet" xml:space="preserve"><path d="M29.3 19.3c-2.3-0.5-5.3-2-6.4-3.7-0.6-1-0.7-2.1-0.2-3 0-0.1 0.1-0.1 0.1-0.2 0-0.2 0-0.5 0.2-0.8 0 0 0 0 0 0H11.1c0 0 0 0 0 0 0 0 0 0 0 0 0.3 0.4 0.5 0.8 0.6 1 0.5 1 0.4 2.1-0.2 3.1-1.1 1.8-4.1 3.2-6.4 3.7L4.6 30.1c-0.1 1.2 0.7 2.1 1.7 2.1h22c1 0 1.8-1 1.7-2.1L29.3 19.3zM13.7 26.8h-2.1c-0.4 0-0.7-0.3-0.7-0.7s0.3-0.7 0.7-0.7h2.1c0.4 0 0.7 0.3 0.7 0.7S14.1 26.8 13.7 26.8zM13.7 24.1h-2.1c-0.4 0-0.7-0.3-0.7-0.7 0-0.4 0.3-0.7 0.7-0.7h2.1c0.4 0 0.7 0.3 0.7 0.7C14.4 23.8 14.1 24.1 13.7 24.1zM13.7 21.5h-2.1c-0.4 0-0.7-0.3-0.7-0.7 0-0.4 0.3-0.7 0.7-0.7h2.1c0.4 0 0.7 0.3 0.7 0.7S14.1 21.5 13.7 21.5zM18.3 26.8h-2.1c-0.4 0-0.7-0.3-0.7-0.7s0.3-0.7 0.7-0.7h2.1c0.4 0 0.7 0.3 0.7 0.7C19 26.5 18.7 26.8 18.3 26.8zM18.3 24.1h-2.1c-0.4 0-0.7-0.3-0.7-0.7 0-0.4 0.3-0.7 0.7-0.7h2.1c0.4 0 0.7 0.3 0.7 0.7C19 23.8 18.7 24.1 18.3 24.1zM18.3 21.5h-2.1c-0.4 0-0.7-0.3-0.7-0.7 0-0.4 0.3-0.7 0.7-0.7h2.1c0.4 0 0.7 0.3 0.7 0.7C19 21.2 18.7 21.5 18.3 21.5zM22.9 26.8h-2.1c-0.4 0-0.7-0.3-0.7-0.7s0.3-0.7 0.7-0.7h2.1c0.4 0 0.7 0.3 0.7 0.7C23.6 26.5 23.3 26.8 22.9 26.8zM22.9 24.1h-2.1c-0.4 0-0.7-0.3-0.7-0.7 0-0.4 0.3-0.7 0.7-0.7h2.1c0.4 0 0.7 0.3 0.7 0.7C23.6 23.8 23.3 24.1 22.9 24.1zM22.9 21.5h-2.1c-0.4 0-0.7-0.3-0.7-0.7 0-0.4 0.3-0.7 0.7-0.7h2.1c0.4 0 0.7 0.3 0.7 0.7C23.6 21.2 23.3 21.5 22.9 21.5zM34.4 13.1c0 0.2 0 0.4-0.1 0.6-0.5 1.2-1.4 2.2-2.1 3.3-0.9 1.4-8.4-1.6-7.4-3.5 0.4-0.7 1.8-2.6 1.9-3.4 0.1-0.7-0.8-1.2-1.7-1.3-2.2-0.2-5.1 0-7.5 0v0c-0.1 0-0.1 0-0.2 0-0.1 0-0.1 0-0.2 0V8.8c-2.4 0-5.2-0.2-7.5 0-0.8 0.1-1.8 0.6-1.7 1.3 0.1 0.8 1.5 2.7 1.9 3.4 1 1.9-6.5 4.9-7.4 3.5-0.7-1.1-1.6-2.1-2.1-3.3-0.1-0.2-0.1-0.4-0.1-0.6-1.1-4.9 3.1-10 9.6-10.5 2.4-0.2 4.9-0.3 7.4-0.4V2.3c0.1 0 0.1 0 0.2 0 0.1 0 0.1 0 0.2 0v0c2.5 0 4.9 0.2 7.4 0.4C31.2 3.2 35.5 8.2 34.4 13.1z"/></svg>
